<svg xmlns="http://www.w3.org/2000/svg" viewBox="0 0 386 441" fill="none">
        <path
          d="M386 110.25L289.5 165.375V275.625L193 330.75V441L289.5 385.875L386 330.75V220.5V110.25Z"
          fill="#DA4BC9"
          id="path2"
        />
        <path
          d="M289.5 165.375L193 110.25V220.5L289.5 275.625V165.375Z"
          fill="#254BC9"
          id="path4"
        />
        <path
          d="M193 110.25L96.5 165.375V275.625L193 220.5V110.25Z"
          fill="#DA4BC9"
          id="path6"
        />
        <path
          d="M193 330.75L289.5 275.625L193 220.5L96.5 275.625L193 330.75Z"
          fill="#80E8C9"
          id="path8"
        />
        <path
          d="M96.5 165.375L0 110.25V220.5V330.75L96.5 385.875L193 441V330.75L96.5 275.625V165.375Z"
          fill="#254BC9"
          id="path10"
        />
        <path
          d="M0 110.25L96.5 165.375L193 110.25L289.5 165.375L386 110.25L289.5 55.125L193 0L96.5 55.125L0 110.25Z"
          fill="#80E8C9"
          id="path12"
        />
        <path
          d="M 193.5,440.139 289.252,385.441 385.5,330.46 V 220.5 111.111 L 290,165.665 v 109.96 c 0,0.178 -97,55.125 -97,55.125 z m 0,0 -0.5,-109.389 0.5,0.29 m 0,109.099 V 331.04 M 289.5,164.799 384.992,110.25 289.252,55.5592 193,0.575834 96.748,55.5592 1.00803,110.25 96.5,164.799 192.749,109.818 c 0.001,-0.001 0.002,-0.002 0.003,-0.002 z m 0,0 -96.249,-54.981 c -0.001,-0.001 -0.002,-0.002 -0.003,-0.002 z M 96,165.665 0.5,111.111 V 220.5 330.46 L 96.748,385.441 192.5,440.139 193,330.75 96.2545,276.061 96.252,276.059 Z m 0,0 v 109.96 c 0,0.178 0.0949,0.343 0.249,0.432 z m 193.5,109.96 -96,-55.415 V 111.111 l 95.5,54.554 z m 0,0 L 193,330.75 97.508,275.625 193,221.076 Z M 192.5,220.21 97,274.764 V 165.665 l 95.5,-54.554 z"
          stroke-linejoin="round"
          id="path14"
        />
      </svg>