<svg width="46" height="47" viewBox="0 0 46 47" fill="none" xmlns="http://www.w3.org/2000/svg">
<path d="M45.4821 43.4813L34.4209 32.4224C37.6269 28.5734 39.2255 23.6366 38.8843 18.6389C38.5431 13.6413 36.2883 8.96756 32.5889 5.59003C28.8896 2.21251 24.0305 0.391215 19.0225 0.50503C14.0145 0.618845 9.2432 2.659 5.7011 6.2011C2.159 9.7432 0.118845 14.5145 0.00503026 19.5225C-0.108785 24.5305 1.71251 29.3896 5.09003 33.0889C8.46756 36.7883 13.1413 39.0431 18.1389 39.3843C23.1366 39.7255 28.0734 38.1269 31.9224 34.9209L42.9813 45.9821C43.1455 46.1463 43.3405 46.2765 43.555 46.3654C43.7695 46.4543 43.9995 46.5 44.2317 46.5C44.4639 46.5 44.6939 46.4543 44.9084 46.3654C45.1229 46.2765 45.3179 46.1463 45.4821 45.9821C45.6463 45.8179 45.7765 45.6229 45.8654 45.4084C45.9543 45.1939 46 44.9639 46 44.7317C46 44.4995 45.9543 44.2695 45.8654 44.055C45.7765 43.8405 45.6463 43.6455 45.4821 43.4813ZM3.58346 19.9893C3.58346 16.8434 4.51632 13.7682 6.26408 11.1525C8.01183 8.53678 10.496 6.49809 13.4024 5.29422C16.3088 4.09034 19.5069 3.77535 22.5924 4.38908C25.6778 5.00281 28.5119 6.5177 30.7364 8.74217C32.9609 10.9666 34.4758 13.8008 35.0895 16.8862C35.7032 19.9716 35.3882 23.1698 34.1844 26.0762C32.9805 28.9826 30.9418 31.4668 28.3261 33.2145C25.7104 34.9623 22.6352 35.8951 19.4893 35.8951C15.2722 35.8904 11.2292 34.2132 8.24734 31.2313C5.26543 28.2493 3.58814 24.2063 3.58346 19.9893Z" fill="white"/>
</svg>
